<?xml version="1.0" standalone="no"?>
<!DOCTYPE svg PUBLIC "-//W3C//DTD SVG 20010904//EN"
 "http://www.w3.org/TR/2001/REC-SVG-20010904/DTD/svg10.dtd">
<svg version="1.0" xmlns="http://www.w3.org/2000/svg"
 width="500.000000pt" height="500.000000pt" viewBox="0 0 500.000000 500.000000"
 preserveAspectRatio="xMidYMid meet">

<g transform="translate(0.000000,500.000000) scale(0.100000,-0.100000)"
fill="#000000" stroke="none">
<path d="M2325 4955 c-92 -31 39 44 -1020 -585 -44 -27 -159 -95 -255 -152
-96 -57 -245 -146 -331 -197 -222 -132 -308 -225 -371 -401 l-23 -65 -3 -1030
c-2 -724 0 -1048 8 -1090 22 -119 68 -213 147 -303 58 -66 118 -108 358 -249
94 -55 218 -129 277 -164 60 -35 132 -78 160 -95 29 -17 150 -89 268 -159 612
-364 710 -420 775 -442 64 -22 82 -24 205 -21 167 5 184 11 393 135 240 142
740 439 832 493 44 27 218 130 387 231 370 220 422 264 499 429 56 118 54 82
54 1195 0 832 -3 1041 -14 1085 -23 95 -84 210 -149 280 -66 71 -77 78 -527
345 -165 98 -388 230 -495 294 -107 65 -247 147 -310 185 -63 37 -122 71 -130
77 -348 211 -394 229 -565 228 -78 0 -116 -6 -170 -24z m345 -109 c30 -12 158
-82 283 -156 125 -74 241 -143 258 -153 57 -33 522 -309 694 -411 94 -56 241
-144 329 -196 114 -68 172 -109 207 -148 51 -56 114 -173 126 -232 l6 -35 -28
33 c-38 45 -75 62 -137 62 -68 0 -110 -20 -313 -147 -88 -55 -232 -144 -320
-198 -88 -54 -193 -119 -233 -144 -128 -80 -150 -94 -517 -321 -198 -122 -384
-243 -414 -268 -73 -63 -126 -146 -145 -232 -23 -101 -24 -1955 -1 -2043 17
-67 48 -112 90 -135 l30 -16 -40 -7 c-46 -8 -172 11 -229 35 -21 9 -64 31 -95
50 -31 18 -135 80 -231 136 -96 56 -191 113 -210 125 -19 12 -114 69 -210 125
-96 57 -263 156 -370 220 -107 64 -247 146 -310 184 -249 146 -275 164 -322
214 -53 56 -90 117 -120 198 l-23 59 -3 985 c-2 651 1 1012 8 1064 14 106 69
221 143 296 36 37 106 86 213 149 87 52 229 135 314 186 85 51 169 101 187
111 81 47 285 168 463 274 588 351 570 341 670 360 68 13 187 2 250 -24z m490
-2681 c0 -82 0 -82 63 -64 21 6 52 7 68 4 23 -5 29 -12 29 -34 0 -33 -28 -132
-41 -146 -5 -5 -33 -10 -62 -10 -105 -2 -195 -78 -205 -173 -6 -68 12 -81 132
-92 105 -10 144 -25 174 -67 82 -116 33 -356 -99 -491 l-48 -49 -3 -84 -3 -84
-55 -32 c-36 -22 -57 -30 -64 -23 -6 6 -12 40 -14 76 -4 62 -6 65 -26 59 -46
-15 -131 -17 -148 -3 -17 12 -17 17 2 92 11 44 22 81 24 84 3 2 38 5 78 6 52
2 85 8 115 24 100 52 154 185 101 247 -20 23 -34 27 -116 35 -155 14 -201 53
-210 178 -8 122 43 256 134 347 44 43 44 44 44 117 0 40 4 79 9 87 11 17 92
69 109 70 8 1 12 -20 12 -74z m830 -853 c0 -46 -21 -92 -41 -92 -5 0 -22 -9
-37 -19 -15 -10 -98 -62 -184 -114 l-158 -96 0 67 0 67 203 121 c111 67 205
119 210 117 4 -2 7 -25 7 -51z"/>
</g>
</svg>
