<?xml version="1.0" standalone="no"?>
<!DOCTYPE svg PUBLIC "-//W3C//DTD SVG 20010904//EN"
 "http://www.w3.org/TR/2001/REC-SVG-20010904/DTD/svg10.dtd">
<svg version="1.0" xmlns="http://www.w3.org/2000/svg"
 width="24.000000pt" height="24.000000pt" viewBox="0 0 24.000000 24.000000"
 preserveAspectRatio="xMidYMid meet">

<g transform="translate(0.000000,24.000000) scale(0.100000,-0.100000)"
fill="#000000" stroke="none">
<path d="M163 144 c-43 -25 -43 -25 -43 -85 0 -32 2 -59 5 -59 2 0 25 12 50
27 l45 28 0 57 c0 32 -3 58 -7 58 -5 0 -27 -12 -50 -26z m-5 -69 c1 -13 -2
-26 -7 -29 -4 -3 -8 8 -9 24 -1 36 13 40 16 5z"/>
</g>
</svg>
