<?xml version="1.0" standalone="no"?>
<!DOCTYPE svg PUBLIC "-//W3C//DTD SVG 20010904//EN"
 "http://www.w3.org/TR/2001/REC-SVG-20010904/DTD/svg10.dtd">
<svg version="1.0" xmlns="http://www.w3.org/2000/svg"
 width="27.000000pt" height="24.000000pt" viewBox="0 0 27.000000 24.000000"
 preserveAspectRatio="xMidYMid meet">

<g transform="translate(0.000000,24.000000) scale(0.100000,-0.100000)"
fill="#000000" stroke="none">
<path d="M175 142 c-35 -24 -40 -33 -43 -71 -2 -24 0 -47 5 -52 5 -5 27 3 51
17 41 25 42 26 42 80 0 30 -3 54 -7 54 -5 -1 -26 -13 -48 -28z m-9 -47 c-3 -8
-1 -15 4 -15 5 0 7 -7 4 -15 -8 -20 -20 -19 -21 3 -2 22 5 42 13 42 3 0 4 -7
0 -15z"/>
</g>
</svg>
