<?xml version="1.0" standalone="no"?>
<!DOCTYPE svg PUBLIC "-//W3C//DTD SVG 20010904//EN"
 "http://www.w3.org/TR/2001/REC-SVG-20010904/DTD/svg10.dtd">
<svg version="1.0" xmlns="http://www.w3.org/2000/svg"
 width="27.000000pt" height="24.000000pt" viewBox="0 0 27.000000 24.000000"
 preserveAspectRatio="xMidYMid meet">
<metadata>
Created by potrace 1.16, written by Peter Selinger 2001-2019
</metadata>
<g transform="translate(0.000000,24.000000) scale(0.100000,-0.100000)"
fill="#000000" stroke="none">
<path d="M73 212 l-43 -27 0 -65 0 -65 45 -28 c57 -34 63 -34 120 0 l45 28 0
65 0 65 -45 28 c-56 33 -68 33 -122 -1z m100 2 c61 -31 61 -34 10 -68 -47 -31
-48 -32 -48 -84 0 -29 -3 -52 -8 -52 -4 0 -25 11 -47 25 -39 25 -40 26 -40 85
0 58 1 60 38 84 45 30 54 31 95 10z"/>
</g>
</svg>
