<?xml version="1.0" standalone="no"?>
<!DOCTYPE svg PUBLIC "-//W3C//DTD SVG 20010904//EN"
 "http://www.w3.org/TR/2001/REC-SVG-20010904/DTD/svg10.dtd">
<svg version="1.0" xmlns="http://www.w3.org/2000/svg"
 width="717.000000pt" height="348.000000pt" viewBox="0 0 717.000000 348.000000"
 preserveAspectRatio="xMidYMid meet">

<g transform="translate(0.000000,348.000000) scale(0.100000,-0.100000)"
fill="#000000" stroke="none">
<path d="M2000 1830 l0 -660 101 0 101 0 -4 514 c-2 283 0 509 4 503 3 -7 16
-75 28 -152 11 -77 28 -174 36 -215 8 -41 23 -124 35 -185 11 -60 33 -176 50
-256 16 -80 29 -160 29 -177 l0 -32 160 0 160 0 0 660 0 660 -101 0 -102 0 5
-470 c3 -259 1 -470 -3 -470 -5 0 -9 6 -9 13 0 90 -39 390 -80 622 -16 88 -32
187 -35 219 -11 93 5 86 -196 86 l-179 0 0 -660z"/>
<path d="M3830 2484 c1 -5 0 -209 -2 -454 -1 -245 -1 -538 0 -652 l2 -208 208
1 c223 1 242 4 315 56 67 47 82 102 82 313 0 122 -4 175 -15 206 -21 57 -75
101 -141 115 l-54 12 50 17 c74 26 118 53 133 83 23 47 34 141 29 247 -7 157
-34 202 -143 242 -50 18 -89 21 -261 26 -115 3 -203 1 -203 -4z m326 -178 c17
-13 19 -29 22 -151 4 -136 -6 -195 -32 -195 -6 0 -21 -3 -33 -6 l-23 -6 0 186
0 186 23 0 c13 0 32 -6 43 -14z m-2 -542 c9 -8 19 -26 22 -38 9 -39 0 -344
-11 -355 -6 -6 -25 -14 -43 -17 l-32 -6 0 216 0 216 24 0 c14 0 32 -7 40 -16z"/>
<path d="M716 2412 c-2 -4 -1 -14 4 -22 7 -11 12 -12 21 -3 6 6 8 16 5 22 -8
13 -23 14 -30 3z"/>
<path d="M785 2410 c-10 -17 21 -40 53 -40 13 0 124 -18 246 -40 121 -22 249
-45 283 -51 34 -6 66 -8 72 -4 12 7 15 35 4 35 -26 0 -185 30 -195 36 -7 5
-58 14 -113 21 -55 7 -129 19 -165 27 -105 24 -176 30 -185 16z"/>
<path d="M3440 2320 l0 -100 -30 0 -30 0 0 -80 0 -80 29 0 30 0 3 -397 c3
-302 7 -406 17 -431 20 -50 54 -62 176 -62 l105 0 0 78 c0 77 0 77 -33 92
l-32 15 -3 353 -2 352 35 0 35 0 0 80 0 80 -35 0 -35 0 0 100 0 100 -115 0
-115 0 0 -100z"/>
<path d="M633 2370 c-12 -5 -31 -17 -42 -27 -20 -17 -224 -129 -283 -155 -16
-7 -28 -16 -28 -20 0 -26 81 11 316 145 36 21 73 44 81 52 13 13 12 15 -4 14
-10 0 -28 -4 -40 -9z"/>
<path d="M727 2344 c-3 -4 -4 -25 -2 -48 2 -22 7 -101 10 -174 l5 -133 -22 6
c-13 3 -66 19 -118 35 -216 66 -295 88 -303 83 -16 -10 17 -30 78 -47 33 -10
96 -30 140 -46 44 -16 96 -32 115 -36 19 -3 54 -15 77 -26 40 -19 42 -22 49
-74 4 -36 11 -54 20 -54 10 0 14 14 14 51 0 45 2 50 18 44 34 -14 92 -18 92
-7 0 16 -40 41 -78 48 -28 6 -32 10 -32 40 0 19 -4 64 -10 101 -5 38 -13 103
-19 146 -8 75 -20 105 -34 91z"/>
<path d="M1490 2275 c0 -31 26 -43 46 -23 14 13 14 17 -1 32 -24 24 -45 20
-45 -9z"/>
<path d="M2946 2234 c-27 -9 -65 -29 -86 -45 -30 -24 -40 -42 -56 -102 -17
-64 -19 -107 -19 -392 0 -284 2 -328 19 -389 11 -39 30 -82 44 -98 51 -56 187
-80 308 -53 62 14 84 24 108 49 62 66 66 79 66 229 l0 137 -110 0 -110 0 0
-102 c0 -117 -12 -151 -52 -156 -43 -5 -49 20 -46 195 l3 158 158 3 157 3 0
214 0 215 -27 39 c-66 94 -223 136 -357 95z m149 -174 c12 -23 15 -56 13 -138
l-3 -107 -45 0 -45 0 -3 119 c-2 100 0 122 14 137 25 28 51 23 69 -11z"/>
<path d="M4705 2244 c-100 -25 -149 -68 -171 -149 -22 -84 -21 -715 1 -802 21
-81 58 -116 144 -136 88 -22 131 -21 217 1 129 34 164 97 164 295 l0 117 -110
0 -110 0 0 -108 c0 -118 -12 -152 -54 -152 -39 0 -47 39 -44 205 l3 150 158 3
157 3 0 192 c0 192 -7 245 -40 295 -8 12 -20 22 -27 22 -7 0 -13 4 -13 9 0 5
-24 19 -52 31 -52 23 -175 36 -223 24z m115 -174 c19 -19 20 -31 18 -138 l-3
-117 -45 0 -45 0 -3 117 c-2 107 -1 119 18 138 11 11 25 20 30 20 6 0 19 -9
30 -20z"/>
<path d="M5335 2243 c-140 -31 -200 -123 -193 -298 l3 -80 113 -3 112 -3 0 95
c0 90 1 96 24 111 20 13 28 14 45 4 35 -23 43 -113 14 -166 -17 -30 -103 -103
-122 -103 -19 0 -130 -73 -145 -94 -37 -57 -48 -133 -43 -290 7 -216 25 -252
131 -263 50 -6 134 24 150 52 13 23 33 45 40 45 3 0 6 -11 6 -24 0 -54 4 -56
119 -56 l106 0 -2 153 c-2 83 -4 292 -6 462 l-3 310 -26 40 c-36 56 -57 73
-121 95 -53 19 -149 25 -202 13z m135 -711 c0 -160 -9 -192 -54 -192 -40 0
-46 17 -46 138 l0 115 36 43 c59 73 64 65 64 -104z"/>
<path d="M6565 2234 c-27 -9 -59 -24 -71 -35 -11 -10 -25 -19 -31 -19 -6 0
-22 -21 -35 -47 -20 -41 -23 -63 -23 -153 1 -154 29 -201 213 -360 88 -76 112
-118 112 -197 0 -70 -17 -107 -50 -111 -41 -6 -50 20 -50 145 l0 113 -116 0
-116 0 4 -127 c3 -104 8 -136 25 -173 49 -105 188 -151 348 -115 62 13 83 23
112 52 56 56 63 84 63 246 0 137 -1 146 -25 181 -33 48 -55 71 -145 144 -127
103 -150 137 -150 220 0 45 4 63 19 76 46 42 84 -13 81 -116 -4 -108 -14 -98
110 -98 l110 0 0 115 c0 80 -4 124 -14 143 -20 37 -63 76 -115 103 -58 30
-183 36 -256 13z"/>
<path d="M1435 2230 c-7 -12 -185 -133 -248 -168 -22 -13 -53 -34 -69 -47 -16
-14 -34 -25 -39 -25 -18 0 -79 -52 -79 -66 0 -16 36 -19 45 -4 3 6 15 10 26
10 10 0 31 14 46 30 14 17 32 30 40 30 7 0 13 4 13 8 0 4 29 27 63 49 35 23
70 49 77 58 7 8 18 15 24 16 16 1 129 92 128 104 -1 14 -19 18 -27 5z"/>
<path d="M6095 2221 c-17 -10 -45 -36 -63 -57 l-31 -39 -1 48 0 47 -112 0
-113 0 -3 -213 c-2 -116 -1 -353 3 -524 l7 -313 109 0 109 0 0 423 c0 324 3
427 13 439 18 23 43 28 63 13 17 -12 19 -32 19 -257 0 -133 2 -327 3 -430 l2
-188 115 0 115 0 0 443 c0 453 -6 544 -38 581 -44 48 -141 62 -197 27z"/>
<path d="M1496 2188 c-10 -39 -7 -668 4 -668 19 0 31 86 35 263 6 214 -5 419
-21 424 -6 2 -14 -6 -18 -19z"/>
<path d="M227 2144 c-15 -15 -7 -45 11 -42 9 2 17 12 17 22 0 20 -16 31 -28
20z"/>
<path d="M236 2041 c-9 -15 27 -296 46 -356 5 -16 12 -72 15 -123 3 -51 10
-95 14 -98 26 -15 22 145 -5 254 -8 32 -17 113 -21 180 -3 68 -9 130 -12 138
-6 15 -29 19 -37 5z"/>
<path d="M920 1900 c0 -28 3 -31 28 -28 21 2 27 8 27 28 0 20 -6 26 -27 28
-25 3 -28 0 -28 -28z"/>
<path d="M934 1825 c-4 -8 -4 -31 -2 -51 l4 -36 -45 7 c-40 6 -44 5 -32 -9 8
-9 19 -16 26 -16 6 0 24 -11 39 -23 27 -24 28 -27 38 -188 17 -290 23 -349 33
-349 12 0 13 255 2 393 -10 106 -7 110 45 83 15 -8 42 -17 60 -21 18 -4 102
-41 187 -82 105 -50 157 -71 164 -64 17 17 -20 48 -82 71 -31 12 -76 32 -100
46 -24 13 -48 24 -54 24 -8 0 -98 40 -207 94 -21 10 -25 20 -28 61 -1 28 -4
56 -7 63 -6 17 -34 15 -41 -3z"/>
<path d="M780 1775 c-9 -11 -10 -19 -3 -26 13 -13 35 12 24 29 -6 10 -11 9
-21 -3z"/>
<path d="M730 1722 c0 -4 -29 -27 -65 -51 -36 -24 -65 -48 -65 -53 0 -4 -6 -8
-13 -8 -8 0 -24 -12 -38 -26 -13 -14 -33 -30 -44 -35 -39 -17 -140 -96 -140
-109 0 -21 22 -23 42 -2 10 10 43 35 73 57 30 21 57 42 58 47 2 4 9 8 16 8 7
0 25 13 40 29 16 16 39 32 52 35 13 4 24 11 24 16 0 5 20 23 45 40 44 31 59
60 30 60 -8 0 -15 -3 -15 -8z"/>
<path d="M1487 1473 c-11 -10 -8 -41 4 -49 17 -10 32 12 24 35 -6 21 -16 26
-28 14z"/>
<path d="M316 1411 c-9 -14 4 -41 19 -41 15 0 28 27 19 41 -3 5 -11 9 -19 9
-8 0 -16 -4 -19 -9z"/>
<path d="M1337 1334 c-53 -41 -97 -79 -97 -84 0 -5 -8 -11 -18 -14 -9 -3 -32
-19 -50 -36 -18 -16 -38 -30 -43 -30 -10 0 -68 -61 -69 -72 0 -12 38 -10 45 2
3 6 13 10 21 10 8 0 37 22 65 49 27 27 62 54 78 61 16 6 34 22 41 36 12 22 46
53 120 113 17 13 22 23 15 30 -7 7 -41 -13 -108 -65z"/>
<path d="M387 1374 c-3 -4 4 -14 16 -24 27 -21 224 -120 238 -120 6 0 30 -13
54 -30 24 -16 50 -30 58 -30 8 0 25 -9 39 -19 42 -33 140 -73 152 -61 13 13 4
21 -64 54 -30 15 -68 35 -85 43 -16 8 -41 20 -55 27 -148 73 -191 95 -230 117
-25 14 -54 28 -65 31 -11 3 -27 9 -36 12 -8 4 -18 4 -22 0z"/>
<path d="M987 1093 c-15 -15 -6 -52 14 -58 32 -11 45 9 25 39 -17 26 -27 31
-39 19z"/>
<path d="M2000 1050 c0 -7 832 -10 2475 -10 1643 0 2475 3 2475 10 0 7 -832
10 -2475 10 -1643 0 -2475 -3 -2475 -10z"/>
</g>
</svg>
