<?xml version="1.0" standalone="no"?>
<!DOCTYPE svg PUBLIC "-//W3C//DTD SVG 20010904//EN"
 "http://www.w3.org/TR/2001/REC-SVG-20010904/DTD/svg10.dtd">
<svg version="1.0" xmlns="http://www.w3.org/2000/svg"
 width="200.000000pt" height="200.000000pt" viewBox="0 0 200.000000 200.000000"
 preserveAspectRatio="xMidYMid meet">

<g transform="translate(0.000000,200.000000) scale(0.100000,-0.100000)"
fill="#000000" stroke="none">
<path d="M370 1625 c-19 -23 -22 -128 -13 -456 8 -268 11 -298 29 -330 16 -27
46 -47 152 -102 73 -37 132 -66 132 -63 0 3 -54 33 -119 66 -109 54 -161 90
-161 112 0 4 12 3 26 -3 l27 -10 -7 43 c-3 24 -13 162 -21 308 -8 146 -20 298
-26 337 -9 56 -9 76 0 87 7 8 8 17 3 20 -6 3 -15 -1 -22 -9z"/>
<path d="M1654 1490 c0 -52 1 -74 3 -47 2 26 2 68 0 95 -2 26 -3 4 -3 -48z"/>
<path d="M1643 1225 c0 -27 2 -38 4 -22 2 15 2 37 0 50 -2 12 -4 0 -4 -28z"/>
<path d="M1643 1110 c0 -25 2 -35 4 -22 2 12 2 32 0 45 -2 12 -4 2 -4 -23z"/>
<path d="M1631 964 c0 -11 3 -14 6 -6 3 7 2 16 -1 19 -3 4 -6 -2 -5 -13z"/>
<path d="M970 530 c20 -13 40 -13 40 0 0 6 -12 10 -27 10 -22 0 -25 -2 -13
-10z"/>
<path d="M360 272 l0 -179 23 2 c21 2 22 6 27 126 3 68 7 112 8 98 2 -22 18
-115 37 -204 3 -16 12 -20 41 -19 l36 1 0 174 c1 169 0 174 -20 177 -20 3 -21
-2 -24 -100 l-3 -103 -13 60 c-7 33 -16 78 -20 100 -7 39 -9 40 -49 43 l-43 3
0 -179z"/>
<path d="M824 437 c-2 -7 -3 -87 -2 -177 l3 -164 60 3 c79 3 95 18 95 87 0 62
-7 84 -26 84 -19 0 -18 6 6 30 21 21 28 92 12 118 -18 28 -138 44 -148 19z
m96 -81 c0 -17 -4 -37 -9 -45 -16 -25 -26 -4 -23 48 3 43 6 50 18 40 8 -6 14
-26 14 -43z m-5 -157 c0 -39 -4 -54 -14 -54 -10 0 -13 14 -13 53 1 68 0 64 15
60 7 -3 12 -24 12 -59z"/>
<path d="M730 406 c0 -14 -4 -27 -10 -31 -6 -4 -6 -15 0 -31 6 -14 10 -72 10
-129 0 -57 3 -106 8 -108 4 -3 20 -7 36 -8 22 -3 30 0 32 13 1 10 -2 20 -7 24
-5 3 -9 47 -9 99 0 52 4 96 9 99 10 7 9 31 -2 42 -4 4 -7 18 -7 31 0 19 -5 23
-30 23 -25 0 -30 -4 -30 -24z"/>
<path d="M576 358 c-12 -17 -16 -48 -16 -123 0 -122 11 -145 69 -145 48 0 71
24 71 73 0 34 -2 37 -30 37 -28 0 -30 -3 -30 -35 0 -19 -4 -35 -10 -35 -5 0
-10 23 -10 50 l0 50 40 0 40 0 0 58 c0 70 -18 92 -73 92 -26 0 -40 -6 -51 -22z
m64 -53 c0 -19 -4 -35 -10 -35 -5 0 -10 16 -10 35 0 19 5 35 10 35 6 0 10 -16
10 -35z"/>
<path d="M1025 366 c-17 -12 -20 -30 -23 -120 -5 -130 6 -156 67 -156 48 0 71
24 71 73 0 33 -3 37 -24 37 -20 0 -25 -6 -28 -32 -5 -55 -28 -46 -28 11 l0 51
40 0 40 0 0 58 c0 44 -5 63 -18 75 -23 21 -71 22 -97 3z m63 -63 c-2 -21 -7
-38 -13 -38 -5 0 -11 17 -13 38 -3 29 0 37 13 37 13 0 16 -8 13 -37z"/>
<path d="M1188 369 c-12 -7 -18 -22 -18 -49 0 -36 3 -40 24 -40 19 0 25 6 28
27 4 35 28 43 28 10 0 -16 -10 -33 -27 -46 -16 -12 -34 -26 -40 -31 -8 -7 -13
-36 -13 -76 0 -71 12 -86 55 -66 13 6 27 8 29 3 3 -4 15 -7 28 -6 23 2 23 4
23 129 0 115 -2 129 -20 142 -22 16 -72 18 -97 3z m62 -184 c0 -33 -4 -45 -15
-45 -11 0 -15 11 -15 38 0 21 3 42 7 45 16 16 23 4 23 -38z"/>
<path d="M1406 373 c-4 -4 -23 -6 -42 -4 l-35 3 3 -138 3 -138 25 0 25 0 3
117 c1 64 7 117 12 117 5 0 11 -52 12 -117 l3 -116 28 -1 27 -2 0 131 c0 89
-4 135 -12 143 -13 13 -41 16 -52 5z"/>
<path d="M1518 369 c-13 -7 -18 -23 -18 -57 0 -43 4 -52 40 -87 30 -29 40 -47
38 -65 -4 -36 -22 -31 -26 8 -3 28 -7 32 -32 32 -27 0 -28 -2 -24 -42 4 -48
24 -68 67 -68 53 0 67 15 67 73 0 49 -3 56 -40 92 -25 24 -40 48 -40 63 0 32
24 23 28 -11 3 -21 9 -27 28 -27 21 0 24 5 24 34 0 19 -7 42 -16 50 -17 18
-70 21 -96 5z"/>
</g>
</svg>
