<?xml version="1.0" standalone="no"?>
<!DOCTYPE svg PUBLIC "-//W3C//DTD SVG 20010904//EN"
 "http://www.w3.org/TR/2001/REC-SVG-20010904/DTD/svg10.dtd">
<svg version="1.0" xmlns="http://www.w3.org/2000/svg"
 width="258.000000pt" height="195.000000pt" viewBox="0 0 258.000000 195.000000"
 preserveAspectRatio="xMidYMid meet">

<g transform="translate(0.000000,195.000000) scale(0.100000,-0.100000)"
fill="#000000" stroke="none">
<path d="M432 1800 c-137 -49 -242 -144 -302 -272 -51 -111 -61 -169 -62 -355
0 -136 3 -172 25 -263 60 -247 174 -465 342 -650 73 -80 77 -86 72 -123 -8
-55 14 -58 68 -8 34 31 53 41 79 41 52 0 155 58 188 105 52 74 55 199 9 307
l-18 43 25 45 c50 88 145 221 152 213 4 -4 15 -46 25 -93 20 -103 70 -240 136
-376 55 -113 90 -154 117 -138 88 55 182 419 169 662 -5 114 -21 152 -62 152
-46 0 -49 -23 -55 -340 -3 -162 -9 -301 -13 -308 -7 -10 -12 -10 -22 -2 -18
15 -67 152 -115 325 -49 174 -62 205 -106 263 -19 25 -34 50 -34 57 0 20 -43
52 -79 59 -40 7 -101 51 -101 72 0 10 12 14 40 14 23 0 58 9 80 20 33 17 59
20 160 20 132 0 174 11 222 57 53 50 45 136 -20 233 -46 67 -84 94 -157 108
-40 8 -69 22 -103 51 -53 45 -165 101 -201 101 -23 0 -24 -2 -18 -55 5 -54 5
-55 -16 -44 -12 7 -35 21 -50 32 -92 64 -267 86 -375 47z m686 -164 c28 -15
62 -64 62 -89 0 -50 -58 -107 -109 -107 -56 0 -101 49 -101 111 0 22 10 41 34
65 37 37 73 43 114 20z m-433 -616 c23 -44 52 -47 122 -10 l59 31 46 -20 c25
-10 49 -24 53 -30 3 -6 -23 -62 -58 -124 -35 -61 -75 -131 -88 -155 -19 -35
-27 -42 -44 -37 -127 38 -219 -3 -251 -113 -23 -79 -15 -132 31 -187 36 -44
36 -47 21 -70 -23 -35 -41 -31 -77 17 -59 80 -101 183 -107 258 -5 81 21 180
67 248 46 70 181 222 197 222 7 0 20 -13 29 -30z m57 -418 c5 -5 -12 -32 -37
-61 -25 -29 -45 -61 -45 -72 0 -23 -28 -69 -42 -69 -13 0 -38 64 -38 96 0 42
31 95 64 110 30 14 83 11 98 -4z m78 -170 c0 -59 -20 -103 -66 -141 -37 -30
-80 -49 -90 -39 -12 13 21 65 73 113 l56 54 -6 49 c-3 28 -3 53 1 57 11 11 31
-47 32 -93z"/>
<path d="M1066 1554 c-21 -20 -20 -37 2 -57 24 -22 45 -21 65 1 22 24 21 35
-1 55 -23 21 -46 22 -66 1z"/>
<path d="M1700 675 l0 -84 -82 -3 -83 -3 -3 -47 -3 -47 83 -3 83 -3 3 -82 c3
-78 4 -83 25 -83 12 0 32 -3 45 -6 22 -6 22 -5 22 85 l0 91 90 0 90 0 0 50 0
50 -90 0 -90 0 0 85 0 85 -45 0 -45 0 0 -85z"/>
<path d="M2240 675 l0 -85 -85 0 -85 0 0 -50 0 -50 85 0 84 0 3 -87 3 -88 48
-3 47 -3 0 90 0 91 84 0 83 0 7 41 c4 22 4 44 1 50 -4 5 -44 9 -91 9 l-84 0 0
85 0 85 -50 0 -50 0 0 -85z"/>
</g>
</svg>
