<?xml version="1.0" standalone="no"?>
<!DOCTYPE svg PUBLIC "-//W3C//DTD SVG 20010904//EN"
 "http://www.w3.org/TR/2001/REC-SVG-20010904/DTD/svg10.dtd">
<svg version="1.0" xmlns="http://www.w3.org/2000/svg"
 width="500.000000pt" height="500.000000pt" viewBox="0 0 500.000000 500.000000"
 preserveAspectRatio="xMidYMid meet">

<g transform="translate(0.000000,500.000000) scale(0.100000,-0.100000)"
fill="#000000" stroke="none">
<path d="M1480 3504 c-281 -33 -552 -121 -605 -197 -39 -55 -7 -102 110 -160
116 -57 294 -101 520 -128 128 -15 548 -15 685 0 289 32 535 107 623 189 116
110 -166 248 -606 297 -165 19 -568 18 -727 -1z"/>
<path d="M854 2881 c1 -175 2 -176 115 -234 136 -71 380 -128 611 -143 159
-10 441 -7 588 5 302 27 581 112 657 202 24 30 25 35 25 175 0 152 -3 159 -45
131 -61 -41 -256 -104 -390 -127 -192 -33 -277 -41 -470 -47 -380 -10 -721 36
-955 130 -41 17 -84 36 -95 44 -39 27 -42 19 -41 -136z"/>
<path d="M2760 2490 c-41 -21 -102 -46 -135 -55 -33 -10 -71 -21 -85 -26 -14
-5 -36 -11 -50 -13 -14 -3 -52 -10 -85 -16 -265 -52 -723 -61 -990 -19 -212
33 -391 81 -495 134 -27 14 -54 25 -59 25 -5 0 -8 -62 -8 -149 2 -172 2 -171
102 -226 123 -67 350 -124 580 -145 120 -11 544 -14 593 -4 25 5 33 15 52 62
38 102 138 210 242 263 95 49 263 65 362 35 27 -8 53 -13 57 -11 9 6 10 185 1
184 -4 0 -41 -18 -82 -39z"/>
<path d="M2495 2227 c-53 -21 -83 -48 -105 -91 -53 -111 8 -230 132 -255 29
-7 68 -20 85 -31 37 -22 73 -86 73 -127 -1 -46 -35 -108 -72 -131 -66 -41
-176 -21 -208 37 -13 24 -42 27 -60 6 -9 -11 -8 -20 10 -45 59 -83 191 -111
281 -58 71 42 109 108 109 189 0 53 -12 88 -48 136 -26 35 -112 83 -150 83
-60 0 -101 46 -102 113 0 59 11 82 50 102 55 28 136 11 160 -36 15 -26 54 -22
58 7 4 29 -30 68 -83 93 -50 23 -85 25 -130 8z"/>
<path d="M3105 2228 c-176 -59 -275 -188 -275 -358 0 -149 81 -275 220 -339
46 -21 70 -25 146 -26 86 0 95 2 166 38 l76 39 39 -42 c30 -33 44 -41 60 -36
37 12 34 33 -11 82 l-44 47 29 45 c56 88 64 253 17 349 -38 79 -123 155 -207
186 -76 29 -159 34 -216 15z m192 -73 c37 -11 67 -31 106 -68 70 -67 101 -143
95 -232 -5 -64 -43 -165 -62 -165 -7 0 -31 18 -55 40 -48 45 -75 48 -79 10 -2
-18 8 -36 38 -64 22 -21 40 -42 40 -47 0 -4 -24 -19 -54 -33 -115 -55 -268
-27 -350 64 -62 69 -80 114 -80 210 0 103 20 150 96 223 78 73 190 96 305 62z"/>
<path d="M3661 2226 c-8 -9 -11 -114 -9 -367 l3 -354 210 -3 c230 -3 255 0
255 26 0 39 -17 42 -217 42 l-193 0 0 319 c0 176 -3 326 -6 335 -8 20 -28 21
-43 2z"/>
<path d="M856 2011 c-8 -17 -6 -270 3 -292 13 -36 111 -99 203 -132 208 -74
463 -109 793 -109 194 -1 415 15 415 29 0 3 -15 26 -34 52 -44 60 -83 156 -92
227 l-7 56 -36 -6 c-106 -16 -317 -17 -506 -2 -294 25 -507 72 -665 149 -39
19 -72 31 -74 28z"/>
</g>
</svg>
